HIERARCHY
ROOT Hips
{
	OFFSET -14.64140 90.27770 -84.91600
	CHANNELS 6 Xposition Yposition Zposition Zrotation Xrotation Yrotation
	JOINT Spine
	{
		OFFSET 0.00000 13.20850 -1.60436
		CHANNELS 3 Zrotation Xrotation Yrotation
		JOINT Spine1
		{
			OFFSET 0.00000 8.61716 0.00000
			CHANNELS 3 Zrotation Xrotation Yrotation
			JOINT Spine2
			{
				OFFSET 0.00000 8.61717 0.00000
				CHANNELS 3 Zrotation Xrotation Yrotation
				JOINT Spine3
				{
					OFFSET 0.00000 8.61717 0.00000
					CHANNELS 3 Zrotation Xrotation Yrotation
					JOINT Neck
					{
						OFFSET 0.00000 11.07920 1.10792
						CHANNELS 3 Zrotation Xrotation Yrotation
						JOINT Neck1
						{
							OFFSET 0.00000 7.08032 0.00000
							CHANNELS 3 Zrotation Xrotation Yrotation
							JOINT Head
							{
								OFFSET 0.00000 7.08031 0.00000
								CHANNELS 3 Zrotation Xrotation Yrotation
								End site
								{
									OFFSET 0.00000 0.00000 0.00000
								}
							}
						}
					}
					JOINT RightShoulder
					{
						OFFSET -0.01000 7.91373 5.19711
						CHANNELS 3 Zrotation Xrotation Yrotation
						JOINT RightArm
						{
							OFFSET -18.41580 0.00000 0.00000
							CHANNELS 3 Zrotation Xrotation Yrotation
							JOINT RightForeArm
							{
								OFFSET -29.11090 0.00000 0.00000
								CHANNELS 3 Zrotation Xrotation Yrotation
								JOINT RightHand
								{
									OFFSET -24.65040 0.00000 0.00000
									CHANNELS 3 Zrotation Xrotation Yrotation
									JOINT RightHandThumb1
									{
										OFFSET -5.35114 -0.85590 3.97906
										CHANNELS 3 Zrotation Xrotation Yrotation
										JOINT RightHandThumb2
										{
											OFFSET -4.52789 0.00000 0.00000
											CHANNELS 3 Zrotation Xrotation Yrotation
											JOINT RightHandThumb3
											{
												OFFSET -2.46976 0.00000 0.00000
												CHANNELS 3 Zrotation Xrotation Yrotation
												End site
												{
													OFFSET 0.00000 0.00000 0.00000
												}
											}
										}
									}
									JOINT RightHandIndex1
									{
										OFFSET -14.26970 0.00000 2.88139
										CHANNELS 3 Zrotation Xrotation Yrotation
										JOINT RightHandIndex2
										{
											OFFSET -5.48836 0.00000 0.00000
											CHANNELS 3 Zrotation Xrotation Yrotation
											JOINT RightHandIndex3
											{
												OFFSET -3.01859 0.00000 0.00000
												CHANNELS 3 Zrotation Xrotation Yrotation
												End site
												{
													OFFSET 0.00000 0.00000 0.00000
												}
											}
										}
									}
									JOINT RightHandMiddle1
									{
										OFFSET -14.26970 0.00000 -0.09147
										CHANNELS 3 Zrotation Xrotation Yrotation
										JOINT RightHandMiddle2
										{
											OFFSET -6.17441 0.00000 0.00000
											CHANNELS 3 Zrotation Xrotation Yrotation
											JOINT RightHandMiddle3
											{
												OFFSET -3.56743 0.00000 0.00000
												CHANNELS 3 Zrotation Xrotation Yrotation
												End site
												{
													OFFSET 0.00000 0.00000 0.00000
												}
											}
										}
									}
									JOINT RightHandRing1
									{
										OFFSET -12.69180 0.00000 -3.06433
										CHANNELS 3 Zrotation Xrotation Yrotation
										JOINT RightHandRing2
										{
											OFFSET -5.62556 0.00000 0.00000
											CHANNELS 3 Zrotation Xrotation Yrotation
											JOINT RightHandRing3
											{
												OFFSET -3.56744 0.00000 0.00000
												CHANNELS 3 Zrotation Xrotation Yrotation
												End site
												{
													OFFSET 0.00000 0.00000 0.00000
												}
											}
										}
									}
									JOINT RightHandPinky1
									{
										OFFSET -11.11390 0.00000 -6.03719
										CHANNELS 3 Zrotation Xrotation Yrotation
										JOINT RightHandPinky2
										{
											OFFSET -4.52789 0.00000 0.00000
											CHANNELS 3 Zrotation Xrotation Yrotation
											JOINT RightHandPinky3
											{
												OFFSET -2.46976 0.00000 0.00000
												CHANNELS 3 Zrotation Xrotation Yrotation
												End site
												{
													OFFSET 0.00000 0.00000 0.00000
												}
											}
										}
									}
								}
							}
						}
					}
					JOINT LeftShoulder
					{
						OFFSET 0.01000 7.91373 5.19711
						CHANNELS 3 Zrotation Xrotation Yrotation
						JOINT LeftArm
						{
							OFFSET 18.41580 0.00000 0.00000
							CHANNELS 3 Zrotation Xrotation Yrotation
							JOINT LeftForeArm
							{
								OFFSET 29.11090 0.00000 0.00000
								CHANNELS 3 Zrotation Xrotation Yrotation
								JOINT LeftHand
								{
									OFFSET 24.65040 0.00000 0.00000
									CHANNELS 3 Zrotation Xrotation Yrotation
									JOINT LeftHandThumb1
									{
										OFFSET 5.35114 -0.85590 3.97906
										CHANNELS 3 Zrotation Xrotation Yrotation
										JOINT LeftHandThumb2
										{
											OFFSET 4.52789 0.00000 0.00000
											CHANNELS 3 Zrotation Xrotation Yrotation
											JOINT LeftHandThumb3
											{
												OFFSET 2.46977 0.00000 0.00000
												CHANNELS 3 Zrotation Xrotation Yrotation
												End site
												{
													OFFSET 0.00000 0.00000 0.00000
												}
											}
										}
									}
									JOINT LeftHandIndex1
									{
										OFFSET 14.26970 0.00000 2.88139
										CHANNELS 3 Zrotation Xrotation Yrotation
										JOINT LeftHandIndex2
										{
											OFFSET 5.48836 0.00000 0.00000
											CHANNELS 3 Zrotation Xrotation Yrotation
											JOINT LeftHandIndex3
											{
												OFFSET 3.01859 0.00000 0.00000
												CHANNELS 3 Zrotation Xrotation Yrotation
												End site
												{
													OFFSET 0.00000 0.00000 0.00000
												}
											}
										}
									}
									JOINT LeftHandMiddle1
									{
										OFFSET 14.26970 0.00000 -0.09147
										CHANNELS 3 Zrotation Xrotation Yrotation
										JOINT LeftHandMiddle2
										{
											OFFSET 6.17440 0.00000 0.00000
											CHANNELS 3 Zrotation Xrotation Yrotation
											JOINT LeftHandMiddle3
											{
												OFFSET 3.56744 0.00000 0.00000
												CHANNELS 3 Zrotation Xrotation Yrotation
												End site
												{
													OFFSET 0.00000 0.00000 0.00000
												}
											}
										}
									}
									JOINT LeftHandRing1
									{
										OFFSET 12.69180 0.00000 -3.06433
										CHANNELS 3 Zrotation Xrotation Yrotation
										JOINT LeftHandRing2
										{
											OFFSET 5.62556 0.00000 0.00000
											CHANNELS 3 Zrotation Xrotation Yrotation
											JOINT LeftHandRing3
											{
												OFFSET 3.56744 0.00000 0.00000
												CHANNELS 3 Zrotation Xrotation Yrotation
												End site
												{
													OFFSET 0.00000 0.00000 0.00000
												}
											}
										}
									}
									JOINT LeftHandPinky1
									{
										OFFSET 11.11390 0.00000 -6.03719
										CHANNELS 3 Zrotation Xrotation Yrotation
										JOINT LeftHandPinky2
										{
											OFFSET 4.52789 0.00000 0.00000
											CHANNELS 3 Zrotation Xrotation Yrotation
											JOINT LeftHandPinky3
											{
												OFFSET 2.46976 0.00000 0.00000
												CHANNELS 3 Zrotation Xrotation Yrotation
												End site
												{
													OFFSET 0.00000 0.00000 0.00000
												}
											}
										}
									}
								}
							}
						}
					}
					JOINT pCube4
					{
						OFFSET 0.00000 10.91090 1.10792
						CHANNELS 3 Zrotation Xrotation Yrotation
						End site
						{
							OFFSET 0.00000 0.00000 0.00000
						}
					}
				}
			}
		}
	}
	JOINT RightUpLeg
	{
		OFFSET -9.98441 0.00000 0.00000
		CHANNELS 3 Zrotation Xrotation Yrotation
		JOINT RightLeg
		{
			OFFSET 0.00000 -42.11790 0.00000
			CHANNELS 3 Zrotation Xrotation Yrotation
			JOINT RightFoot
			{
				OFFSET 0.00000 -45.00020 -0.00001
				CHANNELS 3 Zrotation Xrotation Yrotation
				JOINT RightForeFoot
				{
					OFFSET 0.00000 -3.74820 0.00000
					CHANNELS 3 Zrotation Xrotation Yrotation
					JOINT RightToeBase
					{
						OFFSET 0.00000 0.06325 14.43120
						CHANNELS 3 Zrotation Xrotation Yrotation
						End site
						{
							OFFSET 0.00000 0.00000 0.00000
						}
					}
				}
			}
		}
	}
	JOINT LeftUpLeg
	{
		OFFSET 9.98441 0.00000 0.00000
		CHANNELS 3 Zrotation Xrotation Yrotation
		JOINT LeftLeg
		{
			OFFSET 0.00000 -42.11800 0.00000
			CHANNELS 3 Zrotation Xrotation Yrotation
			JOINT LeftFoot
			{
				OFFSET 0.00000 -45.00070 0.00000
				CHANNELS 3 Zrotation Xrotation Yrotation
				JOINT LeftForeFoot
				{
					OFFSET 0.00000 -3.74824 0.00000
					CHANNELS 3 Zrotation Xrotation Yrotation
					JOINT LeftToeBase
					{
						OFFSET 0.00000 0.06325 14.43110
						CHANNELS 3 Zrotation Xrotation Yrotation
						End site
						{
							OFFSET 0.00000 0.00000 0.00000
						}
					}
				}
			}
		}
	}
}
MOTION
Frames: 4
Frame Time: 0.050000
0.0 0.0 0.0 -3.218057072433462 -2.6795391314990207 -1.5195454620958393 3.4955941816316463 2.5492076552991483 -2.143156507746558 -1.0622523848921832 3.759260310385123 0.4701610498858401 -0.902694 -2.08 -5.98647 2.89336 -0.609217 -1.90384 0.6823543646136464 11.922768151347206 -2.073302375851563 0.826764 -0.327174 -7.64156 1.1373167914909625 -17.01833562850952 -0.3561570809522279 -9.897046809124843 3.0693616658045992 -17.577511882453912 71.31026757474518 4.220320262563533 16.74867003724342 36.24902419238603 2.569341377945943 88.7252866723636 11.943768618715543 0.5065417921758735 -6.827246700371531 18.9311 2.54346 7.37475 -9.04371e-06 3.54899e-06 -4.32387e-05 -3.68096e-08 -1.66657e-06 -4.96815e-07 23.5337 6.68949e-08 -1.01697e-06 2.75368e-05 2.14518e-06 1.42979e-06 2.73329e-16 1.59028e-15 -3.97569e-16 22.1614 -9.89811e-07 5.49825e-08 3.40419e-15 1.59028e-15 -0.0 2.41026e-15 1.59028e-15 3.97569e-16 19.9077 2.27295e-07 -7.36555e-07 -4.32225e-08 -2.16218e-07 3.64607e-07 4.32225e-08 2.16218e-07 -3.64607e-07 38.193 -4.53822e-07 1.24383e-06 2.19231e-07 -1.66512e-07 -1.8884e-06 1.20312e-08 1.09974e-06 -4.77587e-07 8.0777405087542 2.114765003842497 14.552303595442082 -70.22177845141053 17.743737114085494 -16.218505782461055 -35.41473616981711 -1.2049027310822513 -78.72967085667122 -15.515984711392216 0.43953120873106 2.50962172073822 -51.241 -2.15194 1.733 -1.00229e-07 2.61503e-08 2.56766e-08 2.50573e-07 -6.53758e-08 -6.41915e-08 -98.905 3.07283e-06 5.77793e-06 -3.46694e-07 3.93323e-06 -9.36473e-07 -4.17448e-15 3.18055e-15 -1.98785e-15 -114.954 1.95246e-07 -1.12147e-06 -5.19297e-05 -6.62049e-09 1.05888e-07 3.18055e-15 3.18055e-15 -3.18055e-15 -76.4715 4.54206e-06 1.80044e-06 -1.02088e-06 -4.55624e-07 1.06351e-06 -7.15625e-15 9.54166e-15 -4.77083e-15 -60.0813 1.77514e-06 3.7447e-07 -5.74098e-06 1.2485e-06 3.00368e-06 8.066e-07 -1.8194e-07 -2.04785e-07 -1.63997e-15 0.0 -0.0 3.9604825176635665 -8.29655060901267 -2.034290658356592 0.0030804442130059513 28.766062760273208 -0.06257271983855803 -2.380117482881193 -18.574188720875505 -7.0047814894907 7.45443e-16 0.0 -1.98785e-16 -1.2375544068483902e-07 -0.4413114567390552 -1.3720862388474214e-08 14.389269706837938 -6.886074292883748 19.540789800233522 -0.004330299182911433 31.03508108603079 0.09848256617999052 2.4623313129276694 -23.309981903884136 -13.565124307670867 7.95139e-16 0.0 9.54166e-15 -1.2802252419155444e-06 6.103311433010928 7.0322513551921895e-06
0.0 0.0 0.0 -3.3567884910767027 -2.60228690655924 -1.8495261392332811 3.7223062542271808 2.181755065641414 -2.08475638330832 -1.0252050921870453 3.6843889207578275 0.45386131905279753 -0.902694 -2.08 -5.98647 2.89336 -0.609217 -1.90384 0.5656803777280797 12.30579795313519 -1.6615436201169265 0.826764 -0.327174 -7.64156 1.0539133076569482 -16.60617635446551 -0.2772676667242413 -10.231290811298916 3.1382117816434194 -17.24772503817286 71.43393094317001 5.092629577015949 18.50421055840909 36.34157418588183 3.7909594071224775 92.69146122298679 11.757908521363548 0.5113880914509243 -6.459707973470759 18.9311 2.54346 7.37475 -9.04371e-06 3.54899e-06 -4.32387e-05 -3.68096e-08 -1.66657e-06 -4.96815e-07 23.5337 6.68949e-08 -1.01697e-06 2.75368e-05 2.14518e-06 1.42979e-06 2.73329e-16 1.59028e-15 -3.97569e-16 22.1614 -9.89811e-07 5.49825e-08 3.40419e-15 1.59028e-15 -0.0 2.41026e-15 1.59028e-15 3.97569e-16 19.9077 2.27295e-07 -7.36555e-07 -4.32225e-08 -2.16218e-07 3.64607e-07 4.32225e-08 2.16218e-07 -3.64607e-07 38.193 -4.53822e-07 1.24383e-06 2.19231e-07 -1.66512e-07 -1.8884e-06 1.20312e-08 1.09974e-06 -4.77587e-07 8.779022485739667 2.2690526801179085 14.310382892616467 -70.19534638756352 18.507132022406562 -18.552877909232823 -34.697816121109 -0.16214406686369873 -82.57278926107011 -14.476679632069935 0.47986887749894386 1.8013486701783332 -51.241 -2.15194 1.733 -1.00229e-07 2.61503e-08 2.56766e-08 2.50573e-07 -6.53758e-08 -6.41915e-08 -98.905 3.07283e-06 5.77793e-06 -3.46694e-07 3.93323e-06 -9.36473e-07 -4.17448e-15 3.18055e-15 -1.98785e-15 -114.954 1.95246e-07 -1.12147e-06 -5.19297e-05 -6.62049e-09 1.05888e-07 3.18055e-15 3.18055e-15 -3.18055e-15 -76.4715 4.54206e-06 1.80044e-06 -1.02088e-06 -4.55624e-07 1.06351e-06 -7.15625e-15 9.54166e-15 -4.77083e-15 -60.0813 1.77514e-06 3.7447e-07 -5.74098e-06 1.2485e-06 3.00368e-06 8.066e-07 -1.8194e-07 -2.04785e-07 -1.63997e-15 0.0 -0.0 4.536389564812901 -7.7847817415539415 -1.3311786848941145 0.0030270709261434768 28.66470440288991 -0.06081650946668382 -2.4687488875534687 -19.160706951633212 -6.4919654336553725 7.45443e-16 0.0 -1.98785e-16 -1.237649213737092e-07 -0.5156070961689802 -1.380116740972735e-08 14.840527515354664 -7.683600711005209 19.657017424478216 -0.005024905435695274 31.651302306989567 0.10089366433768086 2.4302965579801556 -23.254484044722837 -13.039821012091483 7.95139e-16 0.0 9.54166e-15 -1.2657615523831781e-06 5.872481857638076 7.028434293462544e-06
0.0 0.0 0.0 -3.570165020553956 -2.732331579299033 -2.163618731081323 4.177447144088188 1.881689625375624 -2.0295393382162588 -1.0067137865552722 3.569945322759913 0.4432570620797089 -0.902694 -2.08 -5.98647 2.89336 -0.609217 -1.90384 0.23389616165910207 12.535882860456907 -0.9480624447368537 0.826764 -0.327174 -7.64156 0.7870209651217752 -16.058963380194918 -0.1445927306307379 -10.30808434917781 3.1309574497226498 -16.840876184491485 71.1855575672322 6.546723321371692 20.56897900586652 34.90848840206313 5.0176466230226415 97.32463762755715 11.293814560777717 0.5244782374062787 -6.1860549402296625 18.9311 2.54346 7.37475 -9.04371e-06 3.54899e-06 -4.32387e-05 -3.68096e-08 -1.66657e-06 -4.96815e-07 23.5337 6.68949e-08 -1.01697e-06 2.75368e-05 2.14518e-06 1.42979e-06 2.73329e-16 1.59028e-15 -3.97569e-16 22.1614 -9.89811e-07 5.49825e-08 3.40419e-15 1.59028e-15 -0.0 2.41026e-15 1.59028e-15 3.97569e-16 19.9077 2.27295e-07 -7.36555e-07 -4.32225e-08 -2.16218e-07 3.64607e-07 4.32225e-08 2.16218e-07 -3.64607e-07 38.193 -4.53822e-07 1.24383e-06 2.19231e-07 -1.66512e-07 -1.8884e-06 1.20312e-08 1.09974e-06 -4.77587e-07 9.452121853796141 2.4109290205731573 14.038887598684456 -69.5022112753091 19.8275870076969 -22.172283858087003 -32.486626914308175 1.2541031883537643 -87.99261109418613 -12.910919044248958 0.5438498303626099 1.104017488134089 -51.241 -2.15194 1.733 -1.00229e-07 2.61503e-08 2.56766e-08 2.50573e-07 -6.53758e-08 -6.41915e-08 -98.905 3.07283e-06 5.77793e-06 -3.46694e-07 3.93323e-06 -9.36473e-07 -4.17448e-15 3.18055e-15 -1.98785e-15 -114.954 1.95246e-07 -1.12147e-06 -5.19297e-05 -6.62049e-09 1.05888e-07 3.18055e-15 3.18055e-15 -3.18055e-15 -76.4715 4.54206e-06 1.80044e-06 -1.02088e-06 -4.55624e-07 1.06351e-06 -7.15625e-15 9.54166e-15 -4.77083e-15 -60.0813 1.77514e-06 3.7447e-07 -5.74098e-06 1.2485e-06 3.00368e-06 8.066e-07 -1.8194e-07 -2.04785e-07 -1.63997e-15 0.0 -0.0 5.535728840697711 -6.54885515452778 -0.7974193878699718 0.0024084799920151053 27.810272778455783 -0.06404339318324231 -2.92373505197435 -19.719808804465597 -6.317277188570545 7.45443e-16 0.0 -1.98785e-16 -1.237376536246224e-07 -0.2988794191913646 -1.3566956605658295e-08 15.662503434971606 -8.204501769526336 20.023467547315626 -0.00560594375518888 32.106105512689126 0.10443092112678401 2.2992524889865384 -22.987728770942848 -12.933316130253402 7.95139e-16 0.0 9.54166e-15 -1.2535120168685526e-06 5.676678967390086 7.025258465400057e-06
0.0 0.0 0.0 -3.787876389604039 -2.961676054380436 -2.3449456091895544 4.7375159229016175 1.778520539324787 -2.03423787409851 -0.9952188097767755 3.503340418541604 0.43034990191651085 -0.902694 -2.08 -5.98647 2.89336 -0.609217 -1.90384 -0.12109505657343896 12.77092123525731 -0.34221654636339655 0.826764 -0.327174 -7.64156 0.4823957975518119 -15.749570987013549 -0.019842416413918623 -10.352509511926888 3.1216028091065904 -16.573714924772723 70.74002200694638 8.017000896888765 22.126954009816313 31.486087446496455 5.181371774981362 99.95884185593256 10.796691572782338 0.5277350813147903 -5.831892828354035 18.9311 2.54346 7.37475 -9.04371e-06 3.54899e-06 -4.32387e-05 -3.68096e-08 -1.66657e-06 -4.96815e-07 23.5337 6.68949e-08 -1.01697e-06 2.75368e-05 2.14518e-06 1.42979e-06 2.73329e-16 1.59028e-15 -3.97569e-16 22.1614 -9.89811e-07 5.49825e-08 3.40419e-15 1.59028e-15 -0.0 2.41026e-15 1.59028e-15 3.97569e-16 19.9077 2.27295e-07 -7.36555e-07 -4.32225e-08 -2.16218e-07 3.64607e-07 4.32225e-08 2.16218e-07 -3.64607e-07 38.193 -4.53822e-07 1.24383e-06 2.19231e-07 -1.66512e-07 -1.8884e-06 1.20312e-08 1.09974e-06 -4.77587e-07 10.108530182082113 2.543022785994844 13.794963641840473 -68.35521434199318 21.12594786666547 -26.064623534903898 -28.750739764472723 2.0465185315619743 -92.3100617128043 -11.399973313113048 0.5998219286571622 0.6566686308060732 -51.241 -2.15194 1.733 -1.00229e-07 2.61503e-08 2.56766e-08 2.50573e-07 -6.53758e-08 -6.41915e-08 -98.905 3.07283e-06 5.77793e-06 -3.46694e-07 3.93323e-06 -9.36473e-07 -4.17448e-15 3.18055e-15 -1.98785e-15 -114.954 1.95246e-07 -1.12147e-06 -5.19297e-05 -6.62049e-09 1.05888e-07 3.18055e-15 3.18055e-15 -3.18055e-15 -76.4715 4.54206e-06 1.80044e-06 -1.02088e-06 -4.55624e-07 1.06351e-06 -7.15625e-15 9.54166e-15 -4.77083e-15 -60.0813 1.77514e-06 3.7447e-07 -5.74098e-06 1.2485e-06 3.00368e-06 8.066e-07 -1.8194e-07 -2.04785e-07 -1.63997e-15 0.0 -0.0 6.488240356613998 -5.649500189067316 -0.4427437673114308 0.0017873601309514688 26.996343934537748 -0.06812884708313345 -3.440866733352309 -19.935245285145086 -6.377818530065665 7.45443e-16 0.0 -1.98785e-16 -1.2368961315109907e-07 0.10834094627940145 -1.3127252622800302e-08 16.64904413881487 -8.164589745147703 20.228329229372484 -0.006358167751574639 32.83352183036191 0.10400935488702844 1.8551512186465167 -22.72502945037687 -13.238632962958665 7.95139e-16 0.0 9.54166e-15 -1.230106309290028e-06 5.301778715584683 7.0193360961667405e-06
